<?xml version="1.0" encoding="utf-8"?>
<!-- Generator: Adobe Illustrator 26.3.1, SVG Export Plug-In . SVG Version: 6.00 Build 0)  -->
<svg version="1.1" id="Layer_1" xmlns="http://www.w3.org/2000/svg" xmlns:xlink="http://www.w3.org/1999/xlink" x="0px" y="0px"
	 viewBox="0 0 1190.55 841.89" style="enable-background:new 0 0 1190.55 841.89;" xml:space="preserve">
<style type="text/css">
	.st0{fill:#FFFFFF;}
	.st1{fill:#FFC42C;}
	.st2{fill:#4496CA;}
	.st3{fill:#EF5729;}
	.st4{fill:#929596;}
</style>
<ellipse class="st0" cx="537.78" cy="330.69" rx="163.59" ry="160.11"/>
<ellipse class="st0" cx="982.41" cy="331.34" rx="163.59" ry="160.11"/>
<g>
	<g>
		<g>
			<path class="st1" d="M537.63,137.74c-106.56,0-192.95,86.39-192.95,192.95c0,106.56,86.39,192.95,192.95,192.95
				s192.95-86.39,192.95-192.95C730.58,224.13,644.19,137.74,537.63,137.74z M537.63,465.75c-74.59,0-135.06-60.47-135.06-135.06
				c0-74.59,60.47-135.06,135.06-135.06c64.66,0,118.67,45.44,131.92,106.12h-81.85c-10.01-17.28-28.67-28.94-50.08-28.94
				c-31.97,0-57.88,25.92-57.88,57.88c0,31.97,25.92,57.88,57.88,57.88c21.41,0,40.07-11.66,50.08-28.94h81.85
				C656.3,420.31,602.28,465.75,537.63,465.75z"/>
		</g>
		<polygon class="st2" points="17.06,523.64 74.94,523.64 74.94,465.75 287.18,465.75 287.18,407.87 74.94,407.87 74.94,359.63 
			248.6,359.63 248.6,301.75 74.94,301.75 74.94,253.51 287.18,253.51 287.18,195.62 74.94,195.62 74.94,137.74 17.06,137.74 		"/>
		<g>
			<path class="st3" d="M981.41,137.74c-106.56,0-192.95,86.39-192.95,192.95s86.39,192.95,192.95,192.95
				c106.56,0,192.95-86.39,192.95-192.95S1087.97,137.74,981.41,137.74z M981.41,465.75c-74.59,0-135.06-60.47-135.06-135.06
				s60.47-135.06,135.06-135.06c74.59,0,135.06,60.47,135.06,135.06S1056,465.75,981.41,465.75z"/>
			<circle class="st3" cx="981.41" cy="330.69" r="57.88"/>
		</g>
	</g>
	<g>
		<g>
			<g>
				<rect x="17.06" y="581.52" class="st4" width="10.62" height="48.24"/>
			</g>
			<g>
				<path class="st4" d="M48.91,629.76H38.29v-35.38c0-4.74,2.6-9.08,6.78-11.32c4.18-2.23,9.23-2,13.18,0.64l0.4,0.3l32.76,34.86
					c0.9,0.51,1.71,0.24,2.13,0.02c0.44-0.24,1.17-0.8,1.17-1.96v-35.38h10.62v35.38c0,4.74-2.6,9.08-6.78,11.32
					c-4.18,2.24-9.23,1.99-13.18-0.64l-0.4-0.3l-32.76-34.86c-0.91-0.52-1.71-0.24-2.13-0.01c-0.44,0.23-1.17,0.8-1.17,1.96V629.76z
					"/>
			</g>
			<g>
				<path class="st4" d="M260.66,629.76h-54.2c-7.08,0-12.85-5.76-12.85-12.85v-22.55c0-7.08,5.76-12.85,12.85-12.85h54.2v10.62
					h-54.2c-1.23,0-2.23,1-2.23,2.23v5.96h45.58v10.62h-45.58v5.96c0,1.23,1,2.23,2.23,2.23h54.2V629.76z"/>
			</g>
			<g>
				<g>
					<rect x="144.17" y="581.52" class="st4" width="10.62" height="48.24"/>
				</g>
				<g>
					<rect x="115.95" y="581.52" class="st4" width="67.05" height="10.62"/>
				</g>
			</g>
			<g>
				<g>
					<path class="st4" d="M281.89,629.76h-10.62v-35.4c0-7.08,5.76-12.84,12.84-12.84h41.36c7.08,0,12.84,5.76,12.84,12.84v3.76
						c0,7.07-5.76,12.83-12.83,12.83h-43.6V629.76z M281.89,600.33h43.6c1.22,0,2.21-0.99,2.21-2.21v-3.76c0-1.23-1-2.22-2.22-2.22
						h-41.36c-1.23,0-2.22,1-2.22,2.22V600.33z"/>
				</g>
				<g>
					<polygon class="st4" points="322.54,629.76 296.4,606 305.95,600.33 338.32,629.76 					"/>
				</g>
			</g>
			<g>
				<path class="st4" d="M359.55,629.76h-10.62v-35.38c0-4.74,2.6-9.08,6.78-11.32c4.18-2.23,9.23-2,13.18,0.64l0.4,0.3l32.76,34.86
					c0.9,0.51,1.71,0.24,2.13,0.02c0.44-0.24,1.17-0.8,1.17-1.96v-35.38h10.62v35.38c0,4.74-2.6,9.08-6.78,11.32
					c-4.18,2.24-9.23,1.99-13.18-0.64l-0.4-0.3l-32.76-34.86c-0.91-0.52-1.71-0.24-2.13-0.01c-0.44,0.23-1.17,0.8-1.17,1.96V629.76z
					"/>
			</g>
			<g>
				<path class="st4" d="M691.43,629.76h-10.62v-35.38c0-4.74,2.6-9.08,6.78-11.32c4.18-2.23,9.23-2,13.18,0.64l0.4,0.3l32.76,34.86
					c0.9,0.51,1.71,0.24,2.13,0.02c0.44-0.24,1.17-0.8,1.17-1.96v-35.38h10.62v35.38c0,4.74-2.6,9.08-6.78,11.32
					c-4.18,2.24-9.23,1.99-13.18-0.64l-0.4-0.3l-32.76-34.86c-0.91-0.52-1.71-0.24-2.13-0.01c-0.44,0.23-1.17,0.8-1.17,1.96V629.76z
					"/>
			</g>
			<g>
				<path class="st4" d="M493.64,629.76h-10.62v-18.81h-45.81v18.81H426.6v-35.4c0-7.08,5.76-12.84,12.84-12.84h41.36
					c7.08,0,12.84,5.76,12.84,12.84V629.76z M437.21,600.33h45.81v-5.97c0-1.23-1-2.22-2.22-2.22h-41.36c-1.23,0-2.22,1-2.22,2.22
					V600.33z"/>
			</g>
			<g>
				<g>
					<rect x="532.47" y="581.52" class="st4" width="10.62" height="48.24"/>
				</g>
				<g>
					<rect x="504.26" y="581.52" class="st4" width="67.04" height="10.62"/>
				</g>
			</g>
			<path class="st4" d="M646.08,581.52h-18.81c-13.3,0-24.12,10.82-24.12,24.12c0,13.3,10.82,24.12,24.12,24.12h18.81
				c13.3,0,24.12-10.82,24.12-24.12C670.2,592.34,659.38,581.52,646.08,581.52z M646.08,619.14h-18.81c-7.44,0-13.5-6.06-13.5-13.5
				c0-7.44,6.06-13.5,13.5-13.5h18.81c7.44,0,13.5,6.06,13.5,13.5C659.58,613.09,653.53,619.14,646.08,619.14z"/>
			<g>
				<rect x="581.92" y="581.52" class="st4" width="10.62" height="48.24"/>
			</g>
			<g>
				<path class="st4" d="M825.52,629.76H814.9v-18.81h-45.81v18.81h-10.62v-35.4c0-7.08,5.76-12.84,12.84-12.84h41.36
					c7.08,0,12.84,5.76,12.84,12.84V629.76z M769.09,600.33h45.81v-5.97c0-1.23-1-2.22-2.22-2.22h-41.36c-1.23,0-2.23,1-2.23,2.22
					V600.33z"/>
			</g>
			<g>
				<path class="st4" d="M903.18,629.76h-54.21c-7.08,0-12.84-5.76-12.84-12.84v-35.4h10.62v35.4c0,1.23,1,2.22,2.22,2.22h54.21
					V629.76z"/>
			</g>
		</g>
		<g>
			<g>
				<g>
					<rect x="228.81" y="656.76" class="st4" width="10.62" height="48.24"/>
				</g>
				<g>
					<polygon class="st4" points="183,705 172.38,705 172.38,656.76 183,656.76 183,675.57 234.12,675.57 234.12,686.19 183,686.19 
											"/>
				</g>
			</g>
			<g>
				<path class="st4" d="M71.26,705h-54.2v-10.62h54.2c1.23,0,2.23-1,2.23-2.23v-3.74c0-1.23-1-2.23-2.23-2.23H29.9
					c-7.08,0-12.84-5.76-12.84-12.84v-3.74c0-7.08,5.76-12.84,12.84-12.84h54.2v10.62H29.9c-1.23,0-2.23,1-2.23,2.23v3.74
					c0,1.23,1,2.23,2.23,2.23h41.36c7.08,0,12.84,5.76,12.84,12.84v3.74C84.1,699.24,78.34,705,71.26,705z"/>
			</g>
			<g>
				<path class="st4" d="M472.41,705H418.2c-7.08,0-12.84-5.76-12.84-12.84v-35.4h10.62v35.4c0,1.23,1,2.22,2.22,2.22h54.21V705z"/>
			</g>
			<path class="st4" d="M292.97,656.76h-18.81c-13.3,0-24.12,10.82-24.12,24.12c0,13.3,10.82,24.12,24.12,24.12h18.81
				c13.3,0,24.12-10.82,24.12-24.12C317.08,667.58,306.26,656.76,292.97,656.76z M292.97,694.38h-18.81c-7.44,0-13.5-6.06-13.5-13.5
				c0-7.44,6.06-13.5,13.5-13.5h18.81c7.44,0,13.5,6.06,13.5,13.5C306.47,688.33,300.41,694.38,292.97,694.38z"/>
			<path class="st4" d="M370.63,656.76h-18.81c-13.3,0-24.12,10.82-24.12,24.12c0,13.3,10.82,24.12,24.12,24.12h18.81
				c13.3,0,24.12-10.82,24.12-24.12C394.75,667.58,383.93,656.76,370.63,656.76z M370.63,694.38h-18.81c-7.44,0-13.5-6.06-13.5-13.5
				c0-7.44,6.06-13.5,13.5-13.5h18.81c7.44,0,13.5,6.06,13.5,13.5C384.13,688.33,378.07,694.38,370.63,694.38z"/>
			<path class="st4" d="M161.76,694.38h-42.93c-7.44,0-13.5-6.06-13.5-13.5c0-7.44,6.06-13.5,13.5-13.5h42.93v-10.62h-42.93
				c-13.3,0-24.12,10.82-24.12,24.12c0,13.3,10.82,24.12,24.12,24.12h42.93V694.38z"/>
		</g>
	</g>
</g>
</svg>
